<mxfile host="app.diagrams.net" modified="2023-04-28T07:36:27.182Z" agent="Mozilla/5.0 (Windows NT 10.0; Win64; x64) AppleWebKit/537.36 (KHTML, like Gecko) Chrome/112.0.0.0 Safari/537.36" etag="NmJyZ_upicxJz_pUSGam" version="21.2.3" type="github">
  <diagram name="Page-1" id="9f46799a-70d6-7492-0946-bef42562c5a5">
    <mxGraphModel dx="1032" dy="521" grid="1" gridSize="10" guides="1" tooltips="1" connect="1" arrows="1" fold="1" page="1" pageScale="1" pageWidth="1100" pageHeight="850" background="none" math="0" shadow="0">
      <root>
        <mxCell id="0" />
        <mxCell id="1" parent="0" />
        <mxCell id="UWeG_iMeRHgUMjfAr7Hb-1" value="users" style="swimlane;whiteSpace=wrap;html=1;" parent="1" vertex="1">
          <mxGeometry x="40" y="80" width="230" height="260" as="geometry" />
        </mxCell>
        <mxCell id="UWeG_iMeRHgUMjfAr7Hb-2" value="&amp;nbsp; id: number" style="text;html=1;align=center;verticalAlign=middle;resizable=0;points=[];autosize=1;strokeColor=none;fillColor=none;" parent="UWeG_iMeRHgUMjfAr7Hb-1" vertex="1">
          <mxGeometry x="-5" y="30" width="90" height="30" as="geometry" />
        </mxCell>
        <mxCell id="UWeG_iMeRHgUMjfAr7Hb-4" value="password: string" style="text;html=1;align=center;verticalAlign=middle;resizable=0;points=[];autosize=1;strokeColor=none;fillColor=none;" parent="UWeG_iMeRHgUMjfAr7Hb-1" vertex="1">
          <mxGeometry y="90" width="110" height="30" as="geometry" />
        </mxCell>
        <mxCell id="UWeG_iMeRHgUMjfAr7Hb-5" value="email: string" style="text;html=1;align=center;verticalAlign=middle;resizable=0;points=[];autosize=1;strokeColor=none;fillColor=none;" parent="UWeG_iMeRHgUMjfAr7Hb-1" vertex="1">
          <mxGeometry y="60" width="90" height="30" as="geometry" />
        </mxCell>
        <mxCell id="UWeG_iMeRHgUMjfAr7Hb-32" value="&amp;nbsp; &amp;nbsp;&amp;nbsp;forgot_password_token&lt;span style=&quot;background-color: initial;&quot;&gt;: string&lt;/span&gt;" style="text;html=1;align=center;verticalAlign=middle;resizable=0;points=[];autosize=1;strokeColor=none;fillColor=none;" parent="UWeG_iMeRHgUMjfAr7Hb-1" vertex="1">
          <mxGeometry x="-15" y="120" width="200" height="30" as="geometry" />
        </mxCell>
        <mxCell id="UWeG_iMeRHgUMjfAr7Hb-55" value="&amp;nbsp; &amp;nbsp;&amp;nbsp;forgot_password_expirationTime&lt;span style=&quot;background-color: initial;&quot;&gt;: string&lt;/span&gt;" style="text;html=1;align=center;verticalAlign=middle;resizable=0;points=[];autosize=1;strokeColor=none;fillColor=none;" parent="UWeG_iMeRHgUMjfAr7Hb-1" vertex="1">
          <mxGeometry x="-15" y="150" width="250" height="30" as="geometry" />
        </mxCell>
        <mxCell id="UWeG_iMeRHgUMjfAr7Hb-56" value="name: string" style="text;html=1;align=center;verticalAlign=middle;resizable=0;points=[];autosize=1;strokeColor=none;fillColor=none;" parent="UWeG_iMeRHgUMjfAr7Hb-1" vertex="1">
          <mxGeometry y="180" width="90" height="30" as="geometry" />
        </mxCell>
        <mxCell id="KX8Yls4MQWYgz6l4JdFZ-2" value="isAdmin: boolean" style="text;html=1;align=center;verticalAlign=middle;resizable=0;points=[];autosize=1;strokeColor=none;fillColor=none;" vertex="1" parent="UWeG_iMeRHgUMjfAr7Hb-1">
          <mxGeometry y="210" width="110" height="30" as="geometry" />
        </mxCell>
        <mxCell id="UWeG_iMeRHgUMjfAr7Hb-24" value="games" style="swimlane;whiteSpace=wrap;html=1;" parent="1" vertex="1">
          <mxGeometry x="550" y="80" width="200" height="280" as="geometry" />
        </mxCell>
        <mxCell id="UWeG_iMeRHgUMjfAr7Hb-25" value="id: number" style="text;html=1;align=center;verticalAlign=middle;resizable=0;points=[];autosize=1;strokeColor=none;fillColor=none;" parent="UWeG_iMeRHgUMjfAr7Hb-24" vertex="1">
          <mxGeometry y="30" width="80" height="30" as="geometry" />
        </mxCell>
        <mxCell id="UWeG_iMeRHgUMjfAr7Hb-27" value="type: string" style="text;html=1;align=center;verticalAlign=middle;resizable=0;points=[];autosize=1;strokeColor=none;fillColor=none;" parent="UWeG_iMeRHgUMjfAr7Hb-24" vertex="1">
          <mxGeometry y="60" width="80" height="30" as="geometry" />
        </mxCell>
        <mxCell id="UWeG_iMeRHgUMjfAr7Hb-33" value="description: string" style="text;html=1;align=center;verticalAlign=middle;resizable=0;points=[];autosize=1;strokeColor=none;fillColor=none;" parent="UWeG_iMeRHgUMjfAr7Hb-24" vertex="1">
          <mxGeometry y="90" width="120" height="30" as="geometry" />
        </mxCell>
        <mxCell id="UWeG_iMeRHgUMjfAr7Hb-34" value="range: number" style="text;html=1;align=center;verticalAlign=middle;resizable=0;points=[];autosize=1;strokeColor=none;fillColor=none;" parent="UWeG_iMeRHgUMjfAr7Hb-24" vertex="1">
          <mxGeometry y="120" width="100" height="30" as="geometry" />
        </mxCell>
        <mxCell id="UWeG_iMeRHgUMjfAr7Hb-35" value="price: number" style="text;html=1;align=center;verticalAlign=middle;resizable=0;points=[];autosize=1;strokeColor=none;fillColor=none;" parent="UWeG_iMeRHgUMjfAr7Hb-24" vertex="1">
          <mxGeometry y="150" width="100" height="30" as="geometry" />
        </mxCell>
        <mxCell id="UWeG_iMeRHgUMjfAr7Hb-36" value="max_number: number" style="text;html=1;align=center;verticalAlign=middle;resizable=0;points=[];autosize=1;strokeColor=none;fillColor=none;" parent="UWeG_iMeRHgUMjfAr7Hb-24" vertex="1">
          <mxGeometry y="180" width="140" height="30" as="geometry" />
        </mxCell>
        <mxCell id="UWeG_iMeRHgUMjfAr7Hb-37" value="color: string;" style="text;html=1;align=center;verticalAlign=middle;resizable=0;points=[];autosize=1;strokeColor=none;fillColor=none;" parent="UWeG_iMeRHgUMjfAr7Hb-24" vertex="1">
          <mxGeometry y="210" width="90" height="30" as="geometry" />
        </mxCell>
        <mxCell id="UWeG_iMeRHgUMjfAr7Hb-38" value="min_cart_value: number" style="text;html=1;align=center;verticalAlign=middle;resizable=0;points=[];autosize=1;strokeColor=none;fillColor=none;" parent="UWeG_iMeRHgUMjfAr7Hb-24" vertex="1">
          <mxGeometry y="240" width="150" height="30" as="geometry" />
        </mxCell>
        <mxCell id="UWeG_iMeRHgUMjfAr7Hb-28" value="bets" style="swimlane;whiteSpace=wrap;html=1;" parent="1" vertex="1">
          <mxGeometry x="550" y="520" width="200" height="120" as="geometry" />
        </mxCell>
        <mxCell id="UWeG_iMeRHgUMjfAr7Hb-29" value="id: number" style="text;html=1;align=center;verticalAlign=middle;resizable=0;points=[];autosize=1;strokeColor=none;fillColor=none;" parent="UWeG_iMeRHgUMjfAr7Hb-28" vertex="1">
          <mxGeometry y="30" width="80" height="30" as="geometry" />
        </mxCell>
        <mxCell id="UWeG_iMeRHgUMjfAr7Hb-30" value="user_id: number" style="text;html=1;align=center;verticalAlign=middle;resizable=0;points=[];autosize=1;strokeColor=none;fillColor=none;" parent="UWeG_iMeRHgUMjfAr7Hb-28" vertex="1">
          <mxGeometry y="60" width="110" height="30" as="geometry" />
        </mxCell>
        <mxCell id="UWeG_iMeRHgUMjfAr7Hb-31" value="game_id: number" style="text;html=1;align=center;verticalAlign=middle;resizable=0;points=[];autosize=1;strokeColor=none;fillColor=none;" parent="UWeG_iMeRHgUMjfAr7Hb-28" vertex="1">
          <mxGeometry x="-5" y="90" width="120" height="30" as="geometry" />
        </mxCell>
      </root>
    </mxGraphModel>
  </diagram>
</mxfile>
